<svg height="250.45" viewBox="0 0 250 250.451" width="250" xmlns="http://www.w3.org/2000/svg"><g transform="matrix(1.25 0 0 -1.25 -350.23 967.84)"><path d="m380.12 773.39c54.688 0 99.192-44.59 99.192-99.392 0-54.792-44.503-99.369-99.192-99.369-54.698 0-99.208 44.578-99.208 99.369 0 54.801 44.51 99.392 99.208 99.392" fill="#b3995d"/><path d="m124.91 5.402c-66 0-119.71 53.793-119.71 119.94-.003 66.12 53.71 119.91 119.71 119.91 66.01 0 119.7-53.79 119.7-119.91 0-66.145-53.69-119.94-119.7-119.94zm1.37 7.696.01.363c-.08.004-.21.024-.37.072-.14.053-.25.129-.31.262l-4.12 7.535.2 3.895c.02.201.09.342.2.39.13.053.26.089.39.102l.01.349-4.67.235-.02-.352c.12-.024.25-.068.38-.129.11-.064.17-.208.17-.422l-.19-3.761-5.35-7.19c-.06-.112-.19-.18-.35-.213-.16-.024-.3-.041-.42-.041l-.01-.341 5.6-.5.02.345c-.12.008-.25.032-.39.069-.16.032-.22.122-.21.271 0 .109.09.365.26.623.19.254 2.18 2.852 2.47 3.231.06-.157 1.62-2.952 1.8-3.315.19-.362.31-.669.31-.762 0-.165-.1-.249-.24-.273-.14-.021-.25-.033-.35-.029l-.01-.346zm-17.34.398.86 4.205-.31.057c-.06-.266-.14-.415-.26-.467-.12-.068-.24-.081-.35-.061l-3.7.745 1.76 8.816c.03.218.12.335.27.367.13.024.3.05.43.037l.07.338-4.69.949-.06-.349c.13-.04.26-.105.37-.197.12-.077.16-.23.12-.44l-1.76-8.82-3.721.746c-.105.024-.189.087-.281.183-.093.093-.106.287-.049.557l-.33.053-.846-4.201.314-.061c.073.278.149.44.27.496.121.049.225.073.33.049l10.923-2.203v-.002c.12-.024.19-.079.29-.176.08-.096.1-.282.05-.56zm35.66 1.324c.42.015.84.061 1.25.131.82.161 1.6.443 2.4.842.77.411 1.45.941 2.02 1.594.57.652.99 1.426 1.24 2.328.26.902.28 1.933.07 3.056-.2 1.152-.59 2.091-1.16 2.833-.58.729-1.25 1.296-2.03 1.687-.76.395-1.57.629-2.45.701-.86.077-1.71.036-2.52-.117-.82-.161-1.62-.44-2.42-.822-.77-.391-1.43-.893-2.01-1.541-.58-.641-.98-1.411-1.26-2.309-.25-.894-.26-1.909-.05-3.049.2-1.148.58-2.083 1.16-2.832.58-.741 1.25-1.312 2.03-1.715.76-.398 1.56-.649 2.45-.742.44-.046.86-.06 1.28-.045zm11.56 2.715 10.89 3.815c.09.032.22.032.35-.004.12-.041.24-.198.33-.455l.3.105-1.3 3.75-.31-.109c.09-.278.1-.471.04-.588-.08-.125-.16-.195-.25-.223l-6.8-2.363-.87 2.549 4.58 1.599c.08.033.21.033.34-.007.11-.037.21-.186.31-.444l.32.102-1.29 3.713-.31-.11c.1-.278.12-.475.04-.599-.07-.117-.17-.189-.25-.221l-4.6-1.6-1.3 3.758c-.08.21-.06.363.07.455.11.101.28.201.46.285l-.11.34-4.79-1.486.11-.326c.2.056.38.076.54.072.14-.016.27-.121.34-.322l3.65-10.594c.08-.205.05-.354-.07-.463-.13-.097-.3-.194-.51-.299zm-63.445.254.121.346c-.278.109-.438.206-.559.306-.124.105-.144.258-.08.467l3.483 10.617c.064.21.182.307.367.311.141.012.337-.016.611-.08l.117.33-5.009 1.631-.106-.33c.246-.097.428-.198.561-.311.12-.101.148-.25.08-.447l-3.5-10.629c-.093-.205-.197-.322-.338-.326-.161-.008-.379.019-.641.088l-.105-.338zm51.845.133c-.24-.004-.48.016-.72.057-.45.084-.87.238-1.27.476-.38.242-.7.543-.97.93-.25.39-.44.854-.55 1.398-.09.536-.09 1.03.02 1.481.09.463.28.87.56 1.228.25.355.61.657 1.02.91.39.234.84.412 1.31.496.52.105.99.105 1.45.016.46-.072.88-.237 1.26-.467.39-.233.71-.55.97-.941.28-.379.44-.843.56-1.383.09-.536.09-1.035 0-1.49-.12-.451-.29-.866-.57-1.229-.28-.358-.62-.656-1.01-.902-.39-.238-.86-.414-1.36-.494-.23-.055-.47-.083-.7-.086zm-60.886 3.336.082 4.015-.391-.011c-.02-.037-.028-.08-.049-.145-.012-.06-.028-.113-.041-.17-.052-.064-.189-.105-.451-.125-.233-.02-.534-.007-.892.033-.355.033-.763.097-1.186.202-.427.112-.845.254-1.264.447-.157.064-.395.171-.693.316-.302.153-.576.347-.846.565-.265.213-.491.459-.66.72-.161.25-.162.54-.037.842.141.302.467.453.902.408.431-.048.972-.166 1.6-.351.632-.197 1.324-.394 2.033-.611.725-.214 1.458-.347 2.143-.383.697-.036 1.33.068 1.922.322.584.258 1.068.777 1.406 1.566.25.512.361 1.044.361 1.616.012.56-.112 1.115-.402 1.683-.246.564-.686 1.075-1.27 1.574-.576.496-1.319.951-2.242 1.366-.592.266-1.201.496-1.842.693-.616.193-1.215.35-1.763.459-.556.121-1.006.198-1.393.254-.366.052-.58.097-.629.117-.104.053-.19.141-.234.254-.069.125-.096.244-.141.373l-.322.037-.619-4.008.377.012c.016.044.029.077.045.121.02.053.04.113.068.182.073.185.307.275.697.291.375.02.818-.017 1.369-.094.54-.088 1.096-.217 1.696-.394.592-.17 1.128-.371 1.603-.596.149-.069.339-.166.588-.299.258-.129.475-.289.668-.486.202-.19.364-.408.465-.629.093-.23.083-.478-.021-.744-.19-.355-.487-.529-.946-.496-.455.028-.991.14-1.603.33-.649.193-1.309.399-2.033.621-.734.229-1.43.366-2.135.406-.689.056-1.327-.04-1.903-.273-.576-.246-1.034-.734-1.377-1.483-.177-.403-.298-.887-.318-1.451-.02-.556.085-1.127.322-1.715.246-.58.641-1.156 1.221-1.732.568-.572 1.337-1.079 2.336-1.526.548-.261 1.128-.491 1.684-.652.547-.173 1.066-.319 1.525-.42.471-.105.875-.193 1.193-.258.331-.068.549-.133.698-.185.133-.061.217-.145.265-.27.049-.113.077-.212.121-.297zm94.676 5.4 4.35 2.526-.16.293c-.21-.093-.38-.152-.53-.172-.14-.029-.27.043-.38.22l-2 3.207 4.99 3.125 1.97-3.193c.11-.177.12-.34.02-.461-.08-.129-.21-.244-.37-.381l.19-.302 4.15 2.882-.18.303c-.21-.101-.38-.161-.51-.182-.16-.028-.29.049-.4.239l-5.95 9.476c-.1.186-.12.346-.03.467.08.129.2.254.38.379l-.18.295-4.13-2.881.19-.293c.18.097.35.161.5.186.14.024.29-.054.41-.235l2.34-3.758-4.96-3.125-2.36 3.754c-.1.182-.11.335-.04.455.09.121.22.25.39.383l-.19.293-4.36-2.484.19-.307c.2.097.37.161.52.19.15.024.27-.049.39-.235l5.91-9.529c.11-.177.12-.33.04-.455-.09-.125-.23-.252-.4-.377l.2-.303zm-111.78 3.404c.264-.023.527-.019.785.012 1.032.129 1.937.746 2.678 1.869.584.87.83 1.716.705 2.534-.121.813-.431 1.619-.955 2.388l4.459 2.037c.177.085.359.126.572.133.182 0 .363-.055.528-.16l.217.285-4.711 2.945-.219-.283c.129-.072.226-.172.303-.293.112-.129.112-.25.023-.371-.056-.088-.27-.237-.637-.463-.386-.213-3.237-1.773-3.33-1.849l-2.138 1.443 2.248 3.307c.125.173.245.253.394.216.133-.016.294-.077.463-.166l.197.284-3.697 2.689-.189-.289c.068-.068.148-.166.213-.291.068-.125.052-.266-.073-.451l-6.25-9.254c-.129-.181-.242-.262-.383-.238-.116.016-.246.064-.378.133l-.19-.291 6.936-4.924c.827-.559 1.638-.88 2.429-.952zm-.476 3.139c-.35.029-.77.213-1.272.551l-2.957 2.018 1.76 2.617 3.125-2.121c.471-.319.762-.682.887-1.077.121-.406.044-.826-.254-1.269-.25-.375-.576-.591-.963-.695-.101-.025-.21-.034-.326-.024zm58.876.256c50.66 0 91.73 41.143 91.73 91.893 0 50.74-41.07 91.88-91.73 91.88-50.655 0-91.724-41.14-91.724-91.88 0-50.75 41.069-91.893 91.724-91.893zm-7.35 4.664s-.84.057-1.5.113c-.69.053-3.03.358-3.03.358-5.92 4.406-11.33 12.108-15.797 22.72-1.47 3.496-2.808 7.241-4.008 11.18h-25.224c8.852-14.999 21.339-26.408 35.819-32.127l-.63.117c-.83.226-3.2.893-3.2.893-3.191.826-8.105 2.873-8.105 2.873-10.427 6.674-19.421 16.384-26.179 28.205-.013.013-.014.027-.022.039h-10.486l-1.512 2.028h10.879c-7.693 14.257-12.292 31.39-12.453 49.82h-14.625v2.03h14.617c.133 18.42 4.685 35.55 12.365 49.82h-10.726s1.409 1.93 1.502 2.03h10.328c6.589 11.56 15.292 21.12 25.365 27.8 0 0 3.676 1.51 5.223 2.01 0 0 3.086 1.1 4.879 1.54.68.16 1.35.36 1.35.36-13.928-5.91-25.928-17.12-34.495-31.71h25.27c1.216 4.02 2.578 7.82 4.068 11.37 4.377 10.36 9.617 17.95 15.397 22.41 0 0 1.82.24 3.26.4l1.18.12c-8.87-4.7-16.6-17.18-21.814-34.3h23.094l-4.57-2.03h-19.125c-.894-3.05-1.696-6.24-2.404-9.56l-2.268-1c.757 3.66 1.631 7.17 2.598 10.56h-25.825c-7.829-14.18-12.481-31.32-12.638-49.82h15.941l-.762-2.03h-15.164c.165-18.5 4.851-35.655 12.737-49.82h25.759c-1.164 4.092-2.19 8.365-3.064 12.832 0 0 .704.168 1.127.345l.789.33c.902-4.744 1.986-9.258 3.219-13.507h11.49c.42-.786 1.18-2.028 1.18-2.028h-12.067c5.327-17.343 13.197-29.888 22.257-34.371zm14.9 0c9.06 4.483 16.93 17.024 22.26 34.371h-3.75s.3.811.48 2.028h3.87c1.23 4.229 2.31 8.723 3.23 13.443 0 0 .96-.395 1.5-.565l.41-.14c-.88-4.431-1.9-8.675-3.07-12.738h25.79c7.85 14.165 12.54 31.32 12.73 49.82h-15.26l-.76 2.03h16.02c-.15 18.5-4.82 35.64-12.64 49.82h-25.83c.98-3.41 1.85-6.93 2.61-10.61l-2.25 1.01c-.73 3.33-1.55 6.54-2.42 9.6h-19.23l-4.55 2.03h23.18c-5.21 17.07-12.91 29.51-21.75 34.26 0 0 2.17-.25 2.79-.31.61-.05 1.64-.22 1.64-.22 5.74-4.46 10.96-12.03 15.31-22.36 1.51-3.56 2.86-7.36 4.08-11.37h25.27c-8.46 14.41-20.25 25.53-33.96 31.49 0 0 3.77-1.05 6.1-1.91 0 0 3.68-1.38 4.57-1.82l.77-.29c9.86-6.69 18.37-16.11 24.84-27.47h10c.35-.42 1.51-2.03 1.51-2.03h-10.39c7.68-14.27 12.22-31.4 12.38-49.82h14.26l-.02-2.03h-14.25c-.19-18.43-4.74-35.563-12.46-49.82h10.53l-1.51-2.028h-10.15c-6.66-11.623-15.45-21.221-25.64-27.879 0 0-.68-.26-1.06-.441-.42-.21-3.27-1.266-3.27-1.266-2.78-1.023-7.73-2.359-7.73-2.359 14.29 5.763 26.61 17.091 35.37 31.945h-25.21c-1.21-3.939-2.54-7.684-4.03-11.18-4.44-10.56-9.79-18.228-15.69-22.646 0 0-.94-.146-1.55-.23-.6-.073-3.07-.315-3.07-.315zm-80.075.766 2.67 2.875-.234.222c-.185-.217-.373-.33-.498-.314-.133 0-.247.048-.34.125l-5.647 5.297 1.62 1.742 3.632-3.414c.093-.069.135-.17.155-.311.024-.141-.061-.302-.246-.507l.224-.217 2.59 2.779-.244.213c-.169-.201-.324-.285-.465-.281-.149.004-.241.042-.33.115l-3.641 3.408 1.95 2.106 5.513-5.147c.262-.242.264-.567.014-.99l.225-.223 2.556 2.74-.205.18c-.237-.141-.423-.185-.519-.148-.101.036-.214.128-.383.273l-8.551 8.205-.221-.25c.137-.145.221-.294.282-.443.08-.145.037-.286-.088-.451l-7.573-8.147c-.141-.152-.286-.203-.447-.146-.149.06-.289.154-.467.275l-.238-.258 8.752-8.289c.085-.068.134-.174.162-.302.04-.129-.065-.294-.242-.483zm145.54 1.381 4.06 3.705-.22.261c-.2-.137-.34-.144-.45-.011-.03.044-.14.302-.33.773-.16.455-3.66 11.055-3.84 11.57-.05.097-.05.198 0 .303.05.113.12.201.2.266l-.23.254-3.19-3.209.23-.262c.04.024.11.063.17.107.08.045.16.017.26-.084.04-.056.12-.168.18-.337.06-.162.53-1.607.59-1.752l-4.6-4.106c-.11.085-1.41.705-1.57.781-.16.073-.28.147-.32.207-.09.101-.11.19-.05.262.04.064.09.12.14.164l-.24.254-3.14-2.574.23-.262c.09.073.18.122.29.154.12.037.21.023.31-.025 1.29-.656 9.53-4.759 10.24-5.109.68-.335 1.05-.541 1.1-.621.12-.125.1-.283-.05-.448zm-.12 4.115-5.01 2.373 3.29 2.932zm9.8 5.316 3.01 3.461-.27.209c-.1-.129-.23-.233-.37-.322-.15-.077-.31-.065-.47.068-.07.045-4.51 5.964-4.63 6.121l.02.034c.19-.097 6.4-2.188 6.74-2.317.35-.129.55-.224.65-.301.17-.137.23-.274.19-.451-.05-.157-.11-.319-.21-.435l.26-.223 3.25 4.254-.27.217c-.1-.141-.23-.262-.39-.338-.14-.085-.29-.057-.47.072-.04.032-.18.202-.38.504-.21.306-3.95 5.876-4.04 5.984l.04.053c.19-.101 6.91-2.783 7.02-2.855.16-.133.22-.287.19-.444-.05-.177-.12-.325-.24-.47l.28-.217 2.38 3.621-.29.217c-.19-.178-.34-.251-.51-.227-.15.032-.32.086-.55.158-.17.069-10.25 3.939-10.31 3.971-.18.141-.3.475-.04.906l-.28.213-3.2-4.586.28-.219c.34.379.62.5.78.391.07-.056.23-.245.44-.547.21-.294 3.17-4.652 3.41-4.986.23-.334.4-.569.5-.69l-.03-.039c-.15.061-.41.17-.78.311-.41.141-5.36 1.84-5.7 1.961-.33.129-.55.228-.62.289-.1.06-.12.17-.08.307.04.128.1.293.21.47l-.28.205-3.56-4.232.29-.205c.33.338.7.345.86.224.07-.044 6.77-9.255 6.84-9.339.11-.121.15-.226.14-.319-.01-.096-.04-.167-.09-.244zm-166.74 1.33.283.227c-.077.121-.133.225-.133.342-.028.125.067.285.111.345.133.17 5.45 8.881 5.752 9.34.282.463.511.737.547.77.129.096.263.122.404.082.153-.053.266-.122.331-.227l.265.201-3.447 4.422-.283-.217c.092-.088.141-.208.154-.357.008-.145-.049-.27-.174-.375-.016-.008-.362-.162-.93-.371-.535-.222-8.828-3.287-9.392-3.492-.584-.202-.904-.267-.992-.254-.141.024-.212.077-.252.113-.057.048-.103.106-.143.162l-.281-.222 2.92-4.024.273.213c-.06.081-.14.195-.228.344-.093.149-.076.261.049.357.036.028.216.11.554.238.331.137 6.674 2.428 6.807 2.485l.029-.039c-.358-.568-3.315-5.463-3.625-5.971-.31-.507-.48-.784-.541-.824-.121-.085-.249-.085-.353.023-.121.109-.198.201-.239.278l-.289-.217zm104.35 3.871c-10.28 2.445-12.29 8.639-15.31 9.235-2.4.475-1.74-5.324-1.74-5.324s-14.56 7.446-19.61 19.199c-4.32 10.161-.35 15.816-.35 15.816l5.34.004c-.52-16.94 11.32-23.416 19.27-27.766 1.77-.97 3.46-1.881 4.74-2.767l2.78-1.942-.54 3.348c-.01.04-.66 4.145.17 8.02.25 1.144.65 2.146 1.03 3.113.93 2.368 1.9 4.816.8 8.912-.95 3.472-3.84 6.911-5.99 9.09h3.86s4.02-1.651 7.19-8.764c3.17-9.122.02-12.856-1.97-18.933-1.96-4.721.33-11.241.33-11.241zm-114.58 9.698.293.181c-.109.23-.192.435-.221.588-.024.157.056.301.229.414l9.555 5.801c.193.105.338.112.466.012.125-.097.267-.249.428-.475l.289.186-2.738 4.498-.311-.174c.129-.242.199-.451.227-.604.028-.157-.049-.293-.227-.398l-9.552-5.813c-.198-.104-.347-.112-.463-.015-.137.101-.279.253-.412.467l-.315-.172zm106.05 2.611c-.79.451-1.65.921-2.5 1.389-7.58 4.14-17.78 9.707-17.78 24.162 0 .354.02.71.03 1.072l15.16.008c.75-.641 6.22-5.413 7.41-9.852.3-1.035.41-1.902.41-2.691 0-1.647-.51-2.924-1.1-4.406-.41-1.08-.85-2.194-1.15-3.551-.38-1.768-.49-3.549-.49-5.051 0-.383 0-.742.01-1.08zm86.78 4.889 2.5 4.902-.29.156c-.14-.185-.28-.25-.43-.166-.05.024-.25.243-.56.614-.32.378-7.36 9.054-7.71 9.453-.07.08-.11.168-.1.285.01.125.03.225.08.322l-.31.156-1.83-4.138v-.002l.29-.168c.02.048.08.111.13.172.05.072.14.074.27.013.06-.036.16-.113.27-.246.12-.133 1.09-1.317 1.2-1.426l-2.86-5.476c-.14.032-1.59.148-1.75.168-.19.016-.31.036-.36.072-.14.065-.17.15-.15.234.01.085.04.153.06.198l-.31.164-2.01-3.535.31-.157c.04.093.12.176.21.252.1.068.19.09.29.082 1.45-.157 10.62-1.064 11.4-1.14.76-.077 1.16-.142 1.26-.186.15-.08.17-.226.09-.447zm-197.98 1.386.301.137c-.065.21-.104.394-.104.547s.088.271.281.359l10.223 4.535c.189.093.342.084.455-.021.129-.109.234-.248.326-.437l.33.132-2.195 4.399-.334-.139c.065-.133.112-.289.156-.475.037-.177-.018-.31-.183-.378-.153-.065-.52-.029-1.104.136-.604.157-1.355.379-2.22.645-.887.278-1.905.589-3.004.92-1.08.35-2.24.671-3.416.953l.037.08 6.992 3.109c.181.077.358.065.463-.019.105-.097.198-.229.303-.399l.326.145-1.645 4.254-.33-.155c.049-.169.094-.317.094-.474 0-.141-.106-.249-.299-.342l-10.215-4.547c-.197-.088-.338-.085-.463.028-.104.104-.204.242-.3.419l-.327-.146 2.352-5.879.31.145c-.028.12-.037.249-.037.394.008.145.122.359.36.383.129.02.273-.037.74-.166.443-.109.999-.273 1.695-.479.669-.201 1.43-.41 2.268-.668.854-.245 1.656-.5 2.494-.746l-5.316-2.367c-.19-.076-.348-.069-.473.028-.093.108-.204.254-.301.439l-.326-.137zm196.44 2.42-5.55.43 2.04 3.92zm7.58 9.393 1.77 4.969-.33.121c-.09-.238-.19-.424-.31-.553-.11-.129-.27-.153-.47-.076l-10.49 3.806c-.21.077-.31.203-.31.36 0 .153.02.369.1.623l-.33.121-1.76-4.971.34-.125c.09.246.21.428.32.561.11.117.26.145.45.068l10.51-3.81c.19-.065.29-.181.3-.346 0-.165-.04-.367-.11-.637zm-140.09 5.744 3.453 9.149c5.385 3.49 14.506 11.32 19.316 16.29-11.64-20.329-20.381-24.795-22.769-25.439zm71.149 0c-2.38.644-11.12 5.11-22.78 25.439 4.82-4.97 13.95-12.8 19.36-16.29zm-142.67.91.33.084c-.02.21-.035.398-.019.547.028.173.144.276.334.332l6.068 1.498c.781.185 1.452.467 2.092.838.6.367 1.107.854 1.514 1.438.354.588.609 1.304.685 2.15.085.846-.009 1.822-.275 2.962-.282 1.14-.636 2.06-1.108 2.77-.471.71-1.006 1.23-1.631 1.57-.608.35-1.275.55-1.984.58-.725.04-1.475-.02-2.228-.21l-6.075-1.49c-.205-.04-.358-.01-.443.13-.101.13-.168.29-.248.49l-.332-.08.91-4.69.359.08c-.008.09.001.2.041.3.037.13.164.22.373.26l6.917 1.7c.716.18 1.289.07 1.724-.34.423-.38.717-.98.902-1.76.19-.77.19-1.431-.007-1.983-.198-.556-.657-.914-1.354-1.1l-6.912-1.683c-.213-.048-.355-.024-.443.064-.081.089-.14.166-.184.246l-.322-.08zm212.99 2.063c.29-.02.58-.007.85.035.57.096 1.08.257 1.57.523.47.246.92.58 1.32.979.41.39.75.805 1.07 1.232l-.85.225c-.33-.423-.75-.797-1.25-1.112-.49-.314-1.06-.439-1.68-.378.17.62.15 1.184-.04 1.728-.2.528-.66.894-1.4 1.1-.6.169-1.14.112-1.59-.182-.47-.298-.77-.709-.92-1.232-.19-.689-.09-1.277.34-1.748.42-.476.98-.803 1.67-1.012.31-.087.61-.138.91-.158zm-124.38 2.041c-.83 0-1.51.689-1.51 1.531 0 .838.68 1.529 1.51 1.529h36.95c.86 0 1.53-.691 1.53-1.529 0-.842-.67-1.531-1.53-1.531zm-30.29.238 4.494 11.827 32.796 14.08c-19.006-18.98-31.382-24.82-37.29-25.907zm97.54 0c-5.89 1.087-18.27 6.927-37.28 25.907l32.8-14.08zm60.31 3.977 1.06 5.16-.35.06c-.07-.24-.15-.44-.24-.57-.09-.14-.24-.19-.45-.13l-10.92 2.29c-.22.04-.34.15-.36.31-.04.16-.03.38.01.64l-.34.07-1.06-5.17.35-.07c.07.25.16.45.22.59.09.14.24.18.45.14l10.94-2.32c.22-.04.33-.14.37-.3.01-.16.01-.36-.04-.63zm-125.65 1.09c1.72 4.07 7.41 9.51 16.57 9.51 9.19 0 14.62-5.44 16.7-9.51zm-42.206 4.73c1.538 4.07 20.232 53.46 20.506 54.21l32.48 14.42.74-12.71c0-.11.1-.22.21-.22.13 0 .24.11.24.22l1.21 13.78h.01l1.15 13.15c.06 1.19 1.04 2.13 2.23 2.13 1.22 0 2.17-.93 2.23-2.12l1.18-13.16 1.2-13.78c0-.11.1-.22.23-.22.12 0 .23.11.23.22l.74 12.71 32.49-14.42c.28-.75 18.95-50.14 20.48-54.21l-51.13 21.26 1.42-16.13c-2.07.93-4.49 1.58-7.22 1.78l-1.45 26.65c0 .2-.19.35-.39.35-.21 0-.38-.15-.39-.35l-1.45-26.65c-2.73-.2-5.13-.83-7.22-1.75l1.41 16.1zm101.37 24.65c.25 1.95.63 7.16.77 8.07l-1.93 1.9c0-.54-.06-2.21-.1-2.39l-3.14 1.45c-.18.34-1.24 2.26-1.66 2.93l-.99-.62c.69-1.18 5.83-9.53 6.98-11.31zm-85.577.12.06.02c.665 1.06 3.585 5.96 4.225 6.94.056-.62.283-4.09.359-5.11l.073.02c.733 1.35 5.264 10.24 5.638 10.9h-.002l-1.168.23c-.346-.69-2.83-5.84-3.224-6.57h-.008c0 .51-.146 2.99-.287 4.36l-.057-.03c-.967-1.5-3.491-5.55-3.838-6.11 0 .33.352 4.52.424 5.54l-1.781-1.58c-.024-.97-.386-7.07-.414-8.61zm10.258 2.35 4.164 1.74.439 1.8-4.205-1.76zm67.249 1.16c.07 1.47.15 7.43.18 8.36l-1.7 1.56c0-.98.06-5.06.05-5.38-.33.53-2.63 4.51-3.55 5.98l-.04.02c-.24-1.31-.56-3.73-.58-4.23h-.02c-.35.72-2.55 5.76-2.86 6.43l-1.2-.21c.3-.65 4.39-9.5 5.03-10.82l.08-.03c.15 1 .61 4.52.69 5.13.57-.95 3.26-5.78 3.86-6.79zm6.79.02c-.37.61-1.69 2.9-2.06 3.52l2.1-.97c0-.53-.04-2.18-.04-2.55zm-71.498 2.42.068.03c.971 1.55 5.24 8.83 5.87 9.84l-1.153.57c-.331-.62-1.197-2.28-1.35-2.57l-3.099-1.25c-.041.15-.312 1.6-.409 2.08l-1.744-1.67c.258-.77 1.309-5.33 1.817-7.03zm5.488 1.69 1.95.82c.04.3.49 2.94.8 4.61l.59 3.11c.27.11.91.44 1.82.79l.37 1.91c-.23-.1-3.14-1.52-3.77-1.78-.07-.67-.63-3.66-.7-3.97l-.33-1.76c-.02-.2-.67-3.46-.73-3.73zm46.43.73c.63 1.78 2 6.59 2.33 7.41l-1.69 1.82c-.14-.51-.5-2.04-.57-2.21l-3.12 1.43c-.13.31-.95 2.12-1.28 2.76l-1.19-.57c.56-1.07 4.54-8.96 5.46-10.62zm-51.047.75c-.057.33-.303 1.78-.379 2.22l2.09.88c-.311-.56-1.409-2.53-1.711-3.1zm-70.075 1.59.573 3.23-.27.06c-.036-.06-.068-.13-.125-.19-.056-.06-.165-.07-.318-.04l-5.373 1.14c-.568.12-.952.35-1.121.74-.19.36-.216.84-.112 1.36.121.53.346.94.664 1.21.302.27.738.35 1.293.23l5.389-1.13c.169-.04.251-.09.287-.18.036-.08.047-.13.055-.21l.262-.05.781 3.17-.281.05c-.037-.13-.084-.25-.149-.34-.068-.1-.173-.12-.338-.09l-4.974 1.06c-.609.12-1.173.16-1.721.13s-1.07-.16-1.525-.4c-.46-.23-.854-.59-1.176-1.08-.318-.49-.557-1.13-.742-1.91-.141-.79-.177-1.46-.077-2.04.121-.58.311-1.08.633-1.46.326-.4.733-.74 1.233-1 .487-.23 1.026-.42 1.627-.56l4.957-1.07c.169-.02.274-.09.287-.2.028-.1.028-.24.015-.38zm83.372.17.07.02c.87 1.72 4.68 9.73 5.22 10.85l-1.17.55c-.31-.67-1.08-2.51-1.21-2.81l-3.08-1.48c-.07.15-.43 1.7-.58 2.21l-1.65-1.85c.32-.84 1.76-5.68 2.4-7.49zm118.95.36c.39 0 .81.04 1.24.13.87.18 1.62.46 2.17.89.59.41 1.03.88 1.32 1.41.3.54.5 1.1.57 1.7s.02 1.18-.07 1.72c-.12.56-.31 1.1-.6 1.63s-.68.98-1.17 1.35c-.49.38-1.09.64-1.78.81-.66.16-1.47.15-2.35-.03-.87-.18-1.58-.48-2.16-.88-.58-.41-1.02-.89-1.34-1.42-.33-.56-.52-1.11-.61-1.71-.06-.61-.05-1.18.05-1.74.13-.56.32-1.09.65-1.62.28-.52.69-.96 1.18-1.34.51-.38 1.07-.64 1.78-.8.36-.07.73-.11 1.12-.1zm-81.89.51c-.29.6-1.3 2.73-1.57 3.33l2.11-.95c-.1-.49-.47-2.02-.54-2.38zm-6.69.18c-.05.31-.49 3.03-.73 4.69l-.43 3c.23-.1 1.36-.54 2.18-.93l-.28 1.92c-.2.09-3.25 1.19-3.81 1.41.14-.72.57-3.56.62-3.89l.25-1.77c.02-.22.49-3.5.5-3.74zm-8.32 1.35h.08c1.12 2.22 3.59 7.65 4.15 8.67l-1.59 1.23c-.27-.6-.82-2.08-.92-2.28l-3.39.2c-.1.27-.66 1.87-.89 2.42l-1.53-1.12c.42-.92 3.4-7.69 4.09-9.12zm-13.47.26h.09c.51 1.13 2.26 4.9 2.56 5.59.4-.78 2.18-4.59 2.58-5.43h.09c.58 1.61 2.63 7.82 2.95 8.84l-1.63.9c-.31-1.04-1.56-5.32-1.69-5.67-.22.43-1.8 3.65-2.44 4.81h-.06c-.74-1.49-1.92-4.19-2.14-4.73h-.02c-.17.63-1.26 4.67-1.43 5.25l-1.45-1.01c.17-.55 2.22-7.42 2.59-8.55zm110.55.07c-.19-.01-.38 0-.54.03-.36.07-.68.17-.96.36-.27.18-.51.4-.68.67-.18.26-.29.56-.37.9s-.08.65 0 .98c.08.31.19.61.37.89.17.26.43.5.72.68.31.2.67.33 1.09.42.4.07.79.09 1.14.03.35-.05.67-.18.93-.35.28-.18.51-.39.69-.68.2-.26.33-.57.39-.89.06-.35.06-.67 0-.99s-.19-.6-.39-.87c-.18-.28-.42-.52-.72-.69-.3-.2-.65-.35-1.07-.41-.21-.05-.41-.07-.6-.08zm-118.5.71c-.06.35-.44 1.91-.55 2.39l2.06 1c-.27-.6-1.22-2.78-1.51-3.39zm21.42 2.33c-.21.51-.92 2.39-1.12 2.92l2.28-.14c-.23-.56-1.02-2.38-1.16-2.78zm90.98 4.02.26.09c-.03.13-.03.26-.02.36s.1.18.26.23l8.17 2.63c.16.06.26.04.32-.04.07-.06.15-.18.2-.31l.27.07-.96 3.22-.25-.06c.04-.09.07-.21.07-.33.01-.15-.05-.23-.17-.27-.13-.04-.43.01-.85.15-.42.13-.99.33-1.61.54-.67.24-3.79 1.34-4.65 1.58l.02.05 5.62 1.82c.16.05.28.05.34-.03.08-.06.14-.16.19-.3l.26.1-1.03 2.91-.25-.09c.01-.12.01-.23 0-.33-.02-.09-.1-.18-.27-.23l-8.17-2.63c-.15-.04-.27-.04-.34.03-.06.08-.12.18-.18.31l-.27-.08 1.45-4.07.25.07c-.01.1 0 .19.01.29.02.08.08.18.27.2.04.01.19-.02.51-.13.34-.11 4.1-1.4 4.7-1.61l-4.22-1.37c-.14-.05-.27-.05-.35.04-.08.07-.14.18-.2.32l-.25-.1zm-203.5 2.83c.012.07.064.13.121.19.048.06.117.09.189.09 1.128.02 7.793.21 8.377.23.576.01.924 0 .996-.02.118-.04.16-.13.123-.3l.246-.06 1.165 3.58-.262.08c-.065-.14-.157-.19-.281-.15-.045.01-.21.14-.508.37-.29.22-6.534 5.24-6.852 5.5-.068.04-.097.11-.125.17-.016.09-.015.16.029.23l-.273.09-.988-2.8.246-.07c.008.02.028.07.064.11.037.06.097.08.205.04.061-.03.138-.07.25-.15.093-.08.931-.75 1.024-.8l-1.297-4.01c-.141 0-1.152-.03-1.301-.04-.121-.01-.217 0-.281.01-.093.04-.15.08-.15.14 0 .07.024.11.044.14l-.273.1-.75-2.59zm4.16 2.37.939 2.86 3.299-2.68zm198.39 6.42c.74 0 1.48.18 2.29.53.83.36 1.48.8 1.96 1.32.47.51.78 1.07.98 1.66s.25 1.19.2 1.78c-.07.6-.22 1.17-.46 1.67-.21.52-.51 1-.9 1.47-.4.44-.88.81-1.43 1.06-.56.26-1.19.41-1.87.42-.74.01-1.49-.18-2.32-.54-.81-.34-1.45-.78-1.95-1.31-.47-.52-.8-1.08-1.01-1.67-.19-.58-.26-1.17-.21-1.79.05-.6.19-1.16.41-1.69.23-.52.54-1.01.95-1.45.42-.44.88-.79 1.45-1.06.56-.26 1.22-.39 1.91-.4zm.25 2.4c-.35-.01-.69.04-.98.15-.3.12-.6.29-.84.51-.21.22-.41.49-.56.81-.12.31-.18.63-.18.95 0 .34.05.64.17.96.13.31.32.56.56.82.26.25.59.45.97.62.4.16.76.26 1.11.27.36.02.68-.04.98-.14.31-.12.59-.29.83-.5.23-.23.43-.51.56-.8.13-.33.2-.66.2-.98s-.05-.62-.19-.93c-.11-.32-.31-.59-.56-.83s-.58-.46-.96-.63-.75-.26-1.11-.28zm-188.09 1.31 1.701 3.58-.235.13c-.064-.07-.104-.15-.14-.19-.057-.06-.102-.07-.17-.04-.04.04-.209.19-.479.49-.273.28-2.182 2.44-2.271 2.54.387-.04 3.221-.24 3.523-.28.319-.03.497-.06.557-.11.072-.03.099-.1.092-.15-.028-.07-.04-.14-.092-.23l.25-.13 1.961 3.5-.238.12c-.057-.06-.129-.12-.205-.16-.077-.07-.173-.05-.33.02l-7.645 3.94c-.141.07-.205.15-.221.26 0 .08.015.17.043.26l-.224.12-1.471-2.63.238-.13c.077.11.156.2.233.25.092.06.201.06.33-.01l5.797-3-.016-.03-7.025.6 4.595-5.32-.019-.03-5.797 2.97c-.153.09-.217.18-.217.29s.036.22.084.37l-.244.12-1.193-2.58.242-.13c.06.07.124.14.201.21.093.06.213.06.346-.02l7.625-3.94c.141-.06.216-.15.216-.25 0-.12-.002-.2-.039-.3zm182.66 5.43c.46.04.99.23 1.55.57s.96.71 1.23 1.08c.26.39.41.78.46 1.18.05.39 0 .79-.13 1.18-.14.41-.31.79-.54 1.19l-1.05 1.76 2.39 1.44c.16.08.28.1.35.04.09-.04.16-.12.24-.2l.22.16-1.61 2.66-.23-.14c.01-.04.02-.09.02-.19 0-.08-.07-.18-.24-.26l-7.35-4.41c-.15-.09-.27-.11-.35-.07-.07.06-.13.09-.16.12l-.22-.14 2.42-4.09c.24-.39.51-.74.79-1.04.29-.32.63-.54.99-.7.36-.14.76-.17 1.22-.14zm-.47 2.31c-.07 0-.15 0-.22.02-.26.06-.53.28-.77.68l-.95 1.6 2.29 1.37.9-1.48c.26-.44.35-.8.3-1.09-.07-.29-.31-.56-.72-.8-.33-.2-.59-.29-.83-.3zm-175.42 4.82 2.102 3.15-.217.14c-.101-.13-.205-.14-.322-.07-.028.02-.166.18-.383.49-.234.3-4.887 6.83-5.141 7.15-.048.05-.067.13-.047.21 0 .08.037.16.057.22l-.215.16-1.707-2.44.225-.15c.02.03.041.08.098.12.044.03.096.03.189-.03.056-.02.105-.1.197-.21.077-.11.697-.96.762-1.04l-2.336-3.5c-.113.04-1.101.29-1.242.31-.129.03-.226.05-.266.08-.084.06-.127.13-.111.18.028.07.039.1.047.14l-.19.14-1.437-2.27.219-.16c.048.06.099.11.175.16.069.04.15.04.227.02 1.071-.28 7.54-1.9 8.103-2.05.548-.15.878-.25.934-.28.113-.08.129-.19.057-.33zm-.939 2.8-4.125.96 1.668 2.51zm5.072 3.17 2.002 2.58-.217.18c-.044-.05-.108-.08-.197-.1-.081-.03-.185.02-.318.12l-4.262 3.52c-.435.35-.651.74-.631 1.15.016.42.205.83.543 1.26.342.42.716.67 1.119.77.407.11.815-.04 1.262-.39l4.256-3.5c.129-.09.186-.2.17-.28-.012-.09-.021-.16-.049-.22l.209-.17 2.142 2.45-.212.18c-.105-.11-.197-.19-.286-.23-.108-.05-.222-.03-.363.07l-3.926 3.26c-.463.37-.943.67-1.451.91-.507.22-1.022.33-1.533.33-.516 0-1.027-.15-1.551-.41-.527-.29-1.028-.73-1.515-1.35-.512-.63-.858-1.2-1.036-1.77-.181-.57-.208-1.09-.111-1.59.101-.51.31-.99.645-1.44.306-.46.708-.87 1.168-1.25l3.945-3.24c.129-.12.17-.22.15-.34-.028-.09-.093-.21-.162-.34zm160.92.78.21.18c-.08.12-.06.23.04.32.03.02.26.11.6.24.38.11 7.94 2.5 8.35 2.64.07.03.13.03.21-.01.07-.03.14-.08.18-.14l.23.17-1.76 2.39-.24-.17c.02-.03.06-.06.08-.1.04-.07 0-.12-.09-.21-.04-.02-.13-.07-.25-.12s-1.1-.35-1.21-.38l-2.6 3.29c.08.1.62.97.7 1.08.06.13.13.19.16.24.09.06.16.07.2.03.06-.03.09-.06.12-.1l.2.16-1.73 2.08-.21-.18c.04-.05.08-.12.09-.2.02-.09 0-.17-.05-.23-.6-.93-4.13-6.57-4.45-7.07-.31-.48-.5-.78-.55-.83-.1-.08-.23-.05-.33.05l-.22-.16zm.65 3.03 2.19 3.6 1.86-2.38zm-5.16 2.5.21.19c-.1.16-.15.43-.15.85.01.39.02.85.06 1.34.04.5.24 2.49.25 2.82l5.96 1.66c.16.03.26.04.34.02.08-.01.17-.05.22-.1l.19.19-2.47 2.72-.19-.2c.05-.06.11-.16.18-.29.04-.11.01-.22-.1-.35-.04-.02-.13-.07-.33-.13-.17-.06-3.62-1.04-3.75-1.08l.31 2.46 1.32 1.28c.13.12.23.15.34.1.11-.04.23-.11.31-.19l.19.19-2.43 2.37-.19-.19c.07-.07.13-.14.13-.26.03-.11 0-.22-.12-.34l-6.16-5.97c-.12-.12-.24-.17-.34-.13-.1.02-.19.08-.25.19l-.19-.21 2.39-2.36.2.18c-.06.11-.13.22-.18.33-.04.11 0 .21.12.32l3 2.89c-.03-.26-.25-4.01-.27-4.35-.04-.33-.07-.59-.1-.79-.05-.22-.08-.34-.11-.38-.13-.09-.24-.13-.34-.09-.1.05-.19.09-.26.15l-.21-.18zm-66.73 5.31v2.24h.15c0-.12.04-.22.09-.25.06-.04.11-.05.17-.05h4.36l-2.99 5.02c-.07.1-.12.18-.2.24-.06.07-.14.09-.25.11v.16h3v-.16c-.07-.02-.14-.02-.21-.05s-.11-.08-.11-.19c0-.05.03-.13.09-.24.08-.1.13-.19.19-.3l2.61-4.78v-1.73h-.17c0 .12-.03.2-.09.25-.05.05-.1.06-.16.06h-6.07c-.06 0-.11-.01-.17-.06-.05-.05-.09-.13-.09-.27zm-13.67.25c-.35 0-.72.03-1.12.12-.36.09-.7.24-1.02.42s-.58.44-.8.73c-.18.32-.29.68-.29 1.11 0 .37.07.71.2.99.16.29.35.56.58.76.28.22.55.37.86.48.32.11.67.17 1.01.17.46 0 .87-.06 1.26-.18.38-.12.83-.31 1.29-.53-.03.33-.12.61-.25.83-.13.24-.33.44-.55.59-.21.17-.45.27-.71.37-.27.07-.55.11-.83.11-.21 0-.43-.02-.64-.05-.22-.01-.39-.06-.56-.12-.17-.05-.29-.12-.39-.21-.11-.08-.15-.18-.15-.3v-.13l-.15-.06-1.07 1.83.17.06c.09-.1.19-.15.31-.15.03 0 .1.02.22.07.13.05.3.1.53.15.22.06.47.1.76.13.3.05.62.07.97.07.54 0 1.07-.08 1.57-.24.52-.15.96-.4 1.33-.71.39-.31.7-.72.91-1.19.23-.46.34-.99.34-1.59s-.09-1.11-.28-1.56c-.17-.44-.43-.79-.77-1.09-.31-.3-.71-.52-1.16-.66-.48-.14-.99-.22-1.57-.22zm-7.84.08v.17c.06 0 .13.01.18.04.07.03.09.1.09.2v.43c-.02.01-.08.03-.16.07-.1.03-.18.07-.28.11-.1.03-.2.07-.27.1-.09.02-.14.04-.16.04-.07 0-.11-.04-.12-.12-.02-.09-.03-.16-.03-.2h-.17v2.18h.17c0-.08.02-.16.04-.22.02-.05.06-.1.13-.14s.17-.07.33-.1c.12-.05.29-.08.52-.15v4.32c0 .1-.03.16-.09.19-.07.03-.14.04-.24.06v.15h2.71v-.15c-.09-.02-.15-.03-.23-.06-.06-.03-.09-.09-.09-.19v-6.32c0-.1.03-.17.09-.2.08-.03.15-.04.26-.04v-.17zm16.74.15c-.52 0-.99.09-1.43.28-.45.17-.83.44-1.18.76-.34.33-.6.71-.79 1.15-.2.45-.3.93-.3 1.45 0 .53.1 1.01.3 1.47.19.42.45.82.79 1.15.35.32.73.57 1.18.74.44.18.91.27 1.43.27.48 0 .96-.09 1.41-.27.45-.17.83-.42 1.18-.74.33-.33.61-.73.8-1.15.2-.46.28-.94.28-1.47 0-.52-.08-1-.28-1.45-.19-.44-.47-.82-.8-1.15-.35-.32-.73-.59-1.18-.76-.45-.19-.93-.28-1.41-.28zm-73.668.65 2.473 2.28-.162.21c-.113-.07-.233-.12-.338-.15-.105-.04-.217 0-.326.13l-2.731 3.15c.274-.03 4.021-.46 4.323-.51.334-.05.591-.1.797-.13.197-.05.317-.1.349-.12.101-.13.122-.25.102-.33-.057-.11-.114-.2-.17-.28l.17-.2 2.771 2.28-.181.2c-.162-.09-.435-.12-.858-.09-.395.02-.839.06-1.334.13-.483.06-2.457.39-2.787.41l-1.35 6.07c-.052.13-.051.24-.031.31.032.08.055.17.111.22l-.171.21-2.795-2.35.16-.2c.076.06.154.11.283.16.133.05.237.01.35-.11.024-.04.08-.14.121-.33.048-.19.866-3.7.894-3.81l-2.437.4-1.205 1.41c-.117.11-.141.22-.076.33.044.11.112.23.197.3l-.19.2-2.504-2.29.172-.21c.073.09.163.14.276.17.121.01.233-.05.334-.18l5.65-6.46c.113-.13.158-.25.113-.36-.036-.11-.097-.19-.181-.24zm64.788.5c.13 0 .28.02.44.04.18.03.33.08.49.18.16.06.28.14.39.28.11.13.18.3.18.5 0 .21-.07.36-.18.49-.11.15-.23.24-.39.31s-.31.12-.49.15c-.16.04-.31.04-.44.04-.11 0-.27 0-.44-.04-.17-.03-.35-.08-.49-.15-.16-.07-.29-.16-.39-.31-.1-.13-.15-.28-.15-.49 0-.2.05-.37.15-.5.1-.14.23-.22.39-.28.14-.1.32-.15.49-.18.17-.02.33-.04.44-.04zm8.88.44c.29 0 .53.06.75.19.21.11.38.27.53.46.13.2.23.41.31.65.05.25.08.51.08.75 0 .26-.03.51-.08.75-.08.24-.18.46-.31.66-.15.19-.32.35-.53.47-.22.12-.46.17-.75.17-.31 0-.57-.05-.78-.17s-.4-.28-.52-.47c-.15-.2-.24-.42-.3-.66s-.09-.49-.09-.75c0-.24.03-.5.09-.75.06-.24.15-.45.3-.65.12-.19.31-.35.52-.46.21-.13.47-.19.78-.19zm59.04 4.63.16.21c-.12.12-.22.23-.26.33-.07.11-.04.22.08.35l5.29 6.72c.12.13.23.18.33.16.11-.04.23-.09.4-.19l.15.21-2.81 2.2-.18-.22c.13-.12.23-.24.28-.34s.04-.2-.07-.33l-5.3-6.73c-.11-.13-.21-.19-.33-.17-.1.04-.21.11-.38.2l-.16-.21zm-124.73 1.33 6.654 4.78c.061.04.132.07.225.05.096-.01.202-.09.314-.25l.186.12-1.748 2.46-.19-.13c.125-.17.198-.31.182-.42-.012-.09-.069-.15-.117-.2l-4.297-3.07-1.057 1.47 2.748 1.99c.077.04.148.06.244.04.101-.01.206-.11.327-.27l.181.11-1.711 2.41-.181-.13c.12-.18.18-.3.152-.42-.012-.08-.067-.15-.115-.19l-2.756-1.99-1.297 1.81 4.168 3c.197.15.439.08.713-.19l.17.13-1.74 2.42-.133-.11c.061-.2.085-.34.049-.4-.041-.07-.106-.14-.235-.21l-6.533-4.71.162-.21c.109.06.222.09.326.12.117.02.23-.03.323-.17l4.994-7c.104-.13.113-.24.052-.34-.04-.1-.118-.19-.218-.28zm114.57 5.91.14.23c-.12.09-.17.2-.09.32.03.04.19.19.48.42.28.25 6.54 5.22 6.85 5.48.06.05.14.08.22.08.09 0 .14-.03.2-.07l.14.23-2.47 1.61-.15-.23c.03-.03.07-.06.12-.1.06-.04.05-.1-.01-.19-.04-.06-.11-.12-.2-.21-.11-.1-.95-.75-1.02-.82l-3.59 2.15c.03.12.21 1.13.22 1.27.04.13.06.21.09.28.06.09.11.11.17.11.07-.02.11-.04.13-.06l.15.24-2.36 1.29-.13-.24c.06-.03.11-.08.13-.15.06-.06.08-.15.06-.23-.23-1.08-1.51-7.62-1.62-8.19-.13-.57-.23-.92-.26-.99-.07-.11-.16-.14-.31-.08l-.13-.22zm-101.66 2.58 7.307 3.71c.076.04.141.05.242.02.097-.02.181-.12.273-.3l.198.09-1.373 2.71-.19-.1c.097-.2.132-.35.096-.43-.028-.09-.084-.17-.149-.21l-4.701-2.38-.816 1.63 3.027 1.54c.056.03.133.02.246.01.085-.03.175-.14.283-.32l.198.09-1.334 2.64-.198-.1c.093-.2.136-.34.092-.43-.028-.11-.076-.17-.152-.19l-3.029-1.55-1.014 2 4.599 2.32h.002c.202.11.427.01.668-.3l.182.11-1.338 2.64-.152-.08c.032-.22.031-.35-.018-.41-.048-.06-.132-.11-.265-.17l-7.176-3.66.129-.22c.125.04.237.06.349.07.109 0 .197-.06.27-.21l3.885-7.68c.088-.14.088-.26.004-.36-.061-.07-.145-.16-.266-.22zm101.16.47.76 4.16 2.58-1.54zm-6.21.79.11.25c-.13.07-.23.16-.28.24-.09.09-.09.2 0 .34l3.57 7.79c.07.15.16.24.25.24.11 0 .22-.03.37-.08l.1.25-2.98 1.5-.12-.26c.08-.03.17-.09.3-.18.11-.07.11-.18.05-.29-.05-.12-.28-.31-.66-.53-.42-.23-.92-.5-1.52-.83-.61-.32-3.54-1.88-4.28-2.35l-.03.06 2.46 5.37c.06.13.15.22.25.24.1 0 .22-.03.34-.07l.12.24-2.85 1.21-.12-.25c.12-.06.19-.1.26-.21.06-.08.06-.19-.01-.34l-3.57-7.78c-.08-.17-.16-.24-.27-.24-.1 0-.22 0-.34.06l-.12-.26 3.96-1.69.11.25c-.07.04-.13.1-.19.18-.07.08-.07.2.01.33.04.06.16.13.45.29.31.17 3.8 2.09 4.37 2.4l-1.86-4.05c-.07-.16-.17-.23-.25-.23-.11 0-.23.02-.36.06l-.11-.24zm-83.381 4.24 3.549 1.33-.099.26c-.162-.04-.255 0-.303.13-.012.04-.037.25-.037.62 0 .39.045 8.39.029 8.79 0 .1.024.18.084.24.044.04.101.1.178.12l-.106.24-2.787-.94.098-.25c.028.01.056.02.129.03.052.01.104-.05.152-.14.012-.05.029-.15.029-.29v-1.31l-3.923-1.47c-.085.11-.754.89-.842 1-.085.1-.14.19-.168.23-.036.09-.029.17.027.21.057.03.077.05.117.06l-.09.25-2.488-1.02.11-.26c.06.02.132.03.216.02.077-.01.133-.04.19-.1.705-.86 5.014-5.97 5.385-6.42.366-.44.563-.69.584-.77.064-.13.016-.23-.125-.3zm64.301.26.41 1.4-3.37 1.01-.43-1.4zm8.36.32.09.25c-.17.07-.29.15-.37.23-.09.07-.1.19-.04.34l2.88 8.08c.05.14.12.23.25.24.11.01.25-.01.42-.06l.09.26-3.35 1.21-.09-.26c.18-.08.29-.14.37-.23.1-.06.1-.18.04-.34l-2.9-8.08c-.06-.16-.13-.24-.25-.24-.11-.02-.24 0-.42.05l-.09-.26zm-71.782 2.26-2.779 3.19 2.816 1.06zm64.322.2.08.26c-.14.05-.22.16-.17.29.02.04.13.21.35.52.21.31 4.9 6.8 5.16 7.14.03.06.08.11.17.12.08.02.16.02.22 0l.06.26-2.84.87-.05-.27c.03 0 .07-.01.11-.05.06-.03.08-.09.05-.2-.02-.05-.06-.14-.13-.27-.09-.1-.69-.97-.76-1.06l-4.04 1.12c0 .11-.08 1.17-.1 1.29-.01.15-.01.24 0 .29.03.12.08.16.14.16.06-.01.1-.01.12-.01l.08.26-2.61.62-.07-.27c.07-.03.14-.05.2-.11.06-.07.09-.13.09-.21.06-1.13.59-7.78.64-8.35.03-.6.06-.91.03-1-.03-.12-.12-.18-.28-.15l-.09-.27zm-7.6 1.26.13.65c-.29.22-.56.52-.79.86-.22.35-.33.76-.31 1.26.42-.07.79-.04 1.14.16.33.18.56.57.69 1.13.08.49.02.88-.22 1.19-.2.32-.48.52-.84.59-.48.09-.87-.04-1.15-.4-.32-.35-.51-.78-.61-1.34-.09-.48-.09-.93-.01-1.33.08-.41.21-.79.39-1.13.2-.34.44-.66.74-.93.26-.27.57-.5.84-.71zm-41.65.48c.3.01.58.05.85.1.54.12 1.08.33 1.61.64.51.3.96.71 1.32 1.21.38.51.65 1.1.79 1.82.14.67.14 1.45-.05 2.32-.18.9-.47 1.61-.88 2.19-.41.57-.9 1.01-1.43 1.32-.54.3-1.11.48-1.68.53-.6.07-1.2.03-1.75-.07-.54-.12-1.09-.32-1.61-.61-.51-.31-.985-.71-1.351-1.19-.359-.5-.625-1.08-.774-1.76-.153-.69-.148-1.48.045-2.37.174-.87.472-1.6.895-2.18.395-.56.895-1.01 1.435-1.31.53-.32 1.11-.52 1.7-.6.29-.03.59-.05.88-.04zm47.98 1.04-.39 4.22 2.89-.79zm-18.05.85.02.28c-.14.02-.23.11-.21.23 0 .06.07.23.23.59.14.34 3.46 7.62 3.63 8.03.04.06.09.11.16.15.07.02.14.04.23.04v.27l-2.96.29-.02-.27c.04 0 .1-.02.15-.03.06-.02.08-.09.07-.19 0-.05-.02-.16-.07-.26-.05-.14-.48-1.1-.55-1.21l-4.16.28c-.03.14-.31 1.14-.36 1.25-.04.14-.05.24-.05.3 0 .11.05.16.1.18.07.01.12 0 .14 0l.02.28-2.68.08-.01-.27c.07 0 .15-.03.2-.07.07-.05.12-.1.14-.18.28-1.08 2.11-7.5 2.26-8.08.15-.56.24-.86.23-.94-.01-.13-.1-.21-.25-.22l-.02-.27zm-16.85.05 3.36.22v.27c-.13.01-.24.04-.35.08s-.17.12-.17.3l-.12 4.18c.17-.19 2.8-2.89 3.02-3.14.21-.24.41-.46.54-.61.12-.17.19-.27.19-.3.02-.17-.05-.28-.15-.33s-.19-.09-.29-.1v-.26l3.61.01-.03.26c-.18.03-.42.18-.71.47-.29.26-.62.59-.97.95-.34.36-1.66 1.87-1.9 2.07l2.8 5.58c.06.13.11.21.16.27.08.04.16.07.24.09l-.01.27-3.65-.04v-.27c.09 0 .2-.01.32-.05.12-.05.21-.14.21-.32 0-.04-.05-.15-.12-.33-.08-.17-1.68-3.39-1.73-3.51l-1.62 1.86-.06 1.84c-.01.18.05.29.16.33.1.06.21.09.34.09l-.01.28-3.39-.19v-.27c.11.02.22 0 .31-.06.1-.05.15-.16.17-.33l.28-8.61c0-.16-.07-.28-.15-.34-.08-.05-.18-.08-.3-.07l.02-.29zm-13.21.46c-.16 0-.33.02-.49.05-.3.06-.61.19-.88.37s-.5.42-.69.72c-.2.31-.33.67-.4 1.09-.1.39-.12.78-.05 1.13.05.35.15.67.33.95.19.28.4.51.67.69.28.2.55.3.87.37.37.08.7.08 1.01.01.33-.06.61-.17.87-.35.28-.2.51-.43.7-.74.21-.3.33-.65.41-1.07s.09-.8.04-1.15-.17-.66-.34-.94-.4-.5-.66-.69c-.27-.18-.55-.32-.89-.38-.17-.04-.34-.06-.5-.06zm28.27 1.98-1.23 4.05 3-.2z" fill="#fff" transform="matrix(.8 0 0 -.8 280.19 774.27)"/></g></svg>